<svg width="20" height="20" viewBox="0 0 20 20" fill="none" xmlns="http://www.w3.org/2000/svg">
<path d="M17.3666 3.84172C16.941 3.41589 16.4356 3.0781 15.8794 2.84763C15.3232 2.61716 14.727 2.49854 14.125 2.49854C13.5229 2.49854 12.9267 2.61716 12.3705 2.84763C11.8143 3.0781 11.3089 3.41589 10.8833 3.84172L9.99997 4.72506L9.11663 3.84172C8.25689 2.98198 7.09083 2.49898 5.87497 2.49898C4.65911 2.49898 3.49304 2.98198 2.6333 3.84172C1.77356 4.70147 1.29056 5.86753 1.29056 7.08339C1.29056 8.29925 1.77356 9.46531 2.6333 10.3251L3.51663 11.2084L9.99997 17.6917L16.4833 11.2084L17.3666 10.3251C17.7925 9.89943 18.1303 9.39407 18.3607 8.83785C18.5912 8.28164 18.7098 7.68546 18.7098 7.08339C18.7098 6.48132 18.5912 5.88514 18.3607 5.32893C18.1303 4.77271 17.7925 4.26735 17.3666 3.84172V3.84172Z" stroke="black" stroke-linecap="round" stroke-linejoin="round"/>
</svg>
