<svg width="20" height="20" viewBox="0 0 20 20" fill="none" xmlns="http://www.w3.org/2000/svg">
<path d="M2.5 5L4.16667 16.4286C4.16667 16.9337 4.34226 17.4182 4.65482 17.7754C4.96738 18.1327 5.39131 18.3333 5.83333 18.3333H14.1667C14.6087 18.3333 15.0326 18.1327 15.3452 17.7754C15.6577 17.4182 15.8333 16.9337 15.8333 16.4286L17.5 5H2.5Z" stroke="black" stroke-linecap="round" stroke-linejoin="round"/>
<path d="M6.66667 5C6.66667 4.11594 7.01786 3.2681 7.64298 2.64298C8.2681 2.01786 9.11594 1.66667 10 1.66667C10.8841 1.66667 11.7319 2.01786 12.357 2.64298C12.9821 3.2681 13.3333 4.11595 13.3333 5" stroke="black" stroke-linecap="round" stroke-linejoin="round"/>
<path d="M6.66667 5V8.33333" stroke="black" stroke-linecap="round" stroke-linejoin="round"/>
<path d="M13.3333 5V8.33333" stroke="black" stroke-linecap="round" stroke-linejoin="round"/>
</svg>
